<svg xmlns="http://www.w3.org/2000/svg" width="370" height="370" viewBox="0 0 370 370">
  <g id="Group_4" data-name="Group 4" transform="translate(-281 -384)">
    <rect id="Rectangle_1" data-name="Rectangle 1" width="370" height="370" transform="translate(281 384)" fill="#fff"/>
    <g id="Group_3" data-name="Group 3" transform="translate(139.996 -84.582)">
      <path id="Path_51" data-name="Path 51" d="M337.738,470.923H37.395V442.11a5.589,5.589,0,0,1,5.764-5.4H331.975a5.592,5.592,0,0,1,5.764,5.4Zm0,0" transform="translate(138.437 335.294)" fill="#616a6e"/>
      <path id="Path_53" data-name="Path 53" d="M364.736,507.521H6.263a5.591,5.591,0,0,1-5.764-5.4V478.711a5.592,5.592,0,0,1,5.764-5.4H364.736a5.592,5.592,0,0,1,5.764,5.4v23.411A5.589,5.589,0,0,1,364.736,507.521Zm0,0" transform="translate(140.504 331.061)" fill="#faa68f"/>
    </g>
  </g>
</svg>
