<svg xmlns="http://www.w3.org/2000/svg" width="370.001" height="370" viewBox="0 0 370.001 370">
  <g id="Group_2" data-name="Group 2" transform="translate(-999 -434)">
    <g id="Group_1" data-name="Group 1">
      <rect id="Rectangle_1" data-name="Rectangle 1" width="370" height="370" transform="translate(999 434)" fill="#fff"/>
      <g id="whack-a-mole" transform="translate(1081.883 482.014)">
        <path id="Path_1" data-name="Path 1" d="M189.961,339.988H8.027A8.026,8.026,0,0,1,0,331.961V240.994a98.994,98.994,0,1,1,197.988,0v90.967A8.026,8.026,0,0,1,189.961,339.988Zm0,0" transform="translate(0 -66.016)" fill="#b27861"/>
        <path id="Path_2" data-name="Path 2" d="M185,142V339.988h90.967a8.026,8.026,0,0,0,8.027-8.027V240.994A99.106,99.106,0,0,0,185,142Zm0,0" transform="translate(-86.006 -66.016)" fill="#9d5c4b"/>
        <path id="Path_3" data-name="Path 3" d="M196.99,64.212a8.035,8.035,0,0,1-3.884-1l-11-6.081-11,6.081A8.027,8.027,0,0,1,159.3,54.894l2.191-13.426-9.21-9.442a8.026,8.026,0,0,1,4.532-13.538l12.406-1.9,5.621-11.975a8.025,8.025,0,0,1,14.531,0L195,16.592l12.4,1.9a8.027,8.027,0,0,1,4.534,13.538l-9.212,9.442,2.191,13.426a8.023,8.023,0,0,1-7.922,9.318Zm0,0" transform="translate(-69.736 0)" fill="#ffe54e"/>
        <path id="Path_4" data-name="Path 4" d="M85.08,77.106A8,8,0,0,1,79.4,74.755L63.351,58.7A8.026,8.026,0,1,1,74.7,47.352L90.755,63.4a8.027,8.027,0,0,1-5.675,13.7Zm0,0" transform="translate(-28.359 -20.92)" fill="#e8edf5"/>
        <path id="Path_5" data-name="Path 5" d="M40.431,131.053h-21.4a8.027,8.027,0,1,1,0-16.053h21.4a8.027,8.027,0,1,1,0,16.053Zm0,0" transform="translate(-5.114 -53.463)" fill="#e8edf5"/>
        <path id="Path_6" data-name="Path 6" d="M153.994,392.265a40.132,40.132,0,0,1-29.431-12.847,40.13,40.13,0,1,1-12.485-63.669,8.027,8.027,0,0,1,4.546,8.445,8.027,8.027,0,1,0,15.877,0,8.027,8.027,0,0,1,4.548-8.445,40.133,40.133,0,1,1,16.944,76.515Zm0,0" transform="translate(-25.569 -145.048)" fill="#ffbeaa"/>
        <path id="Path_7" data-name="Path 7" d="M110.436,262.4a8.04,8.04,0,0,1-1.952-.24l-21.4-5.351a8.027,8.027,0,0,1,3.892-15.574l21.4,5.351a8.027,8.027,0,0,1-1.94,15.815Zm0,0" transform="translate(-37.655 -112.039)" fill="#656e73"/>
        <path id="Path_8" data-name="Path 8" d="M227.018,262.4a8.027,8.027,0,0,1-1.94-15.815l21.4-5.351a8.027,8.027,0,0,1,3.892,15.574l-21.4,5.351a8.037,8.037,0,0,1-1.952.24Zm0,0" transform="translate(-101.811 -112.039)" fill="#525c5c"/>
        <path id="Path_9" data-name="Path 9" d="M241.691,23.875a8.02,8.02,0,0,0-6.4-5.387l-12.4-1.9L217.266,4.617A8.027,8.027,0,0,0,210,0V57.131l11,6.081A8.026,8.026,0,0,0,232.8,54.894l-2.191-13.426,9.212-9.442a8.024,8.024,0,0,0,1.865-8.152Zm0,0" transform="translate(-97.629 0)" fill="#ffbd1c"/>
        <path id="Path_10" data-name="Path 10" d="M459.78,209.137a8.03,8.03,0,0,0,0-8.035l-42.808-74.145a8.026,8.026,0,0,0-13.9,8.027l42.808,74.145a8.03,8.03,0,0,0,13.9.008Zm0,0" transform="translate(-186.887 -57.156)" fill="#656e73"/>
        <path id="Path_11" data-name="Path 11" d="M460.331,212.068A8.021,8.021,0,0,0,463.27,201.1l-42.808-74.145A8.026,8.026,0,0,0,409.5,124.02Zm0,0" transform="translate(-190.374 -57.156)" fill="#525c5c"/>
        <path id="Path_12" data-name="Path 12" d="M398.588,56.689l-83.415,48.159a8.026,8.026,0,0,1-10.963-2.939L280.129,60.2a8.023,8.023,0,0,1,2.937-10.963L366.482,1.08a8.023,8.023,0,0,1,10.963,2.937l24.08,41.707a8.026,8.026,0,0,1-2.937,10.965Zm0,0" transform="translate(-129.731 -0.001)" fill="#e8edf5"/>
        <path id="Path_13" data-name="Path 13" d="M364.5,25.156l41.707-24.08A8.026,8.026,0,0,1,417.17,4.016l24.08,41.707a8.022,8.022,0,0,1-2.937,10.963l-41.707,24.08Zm0,0" transform="translate(-169.456 0)" fill="#ccd3e2"/>
        <path id="Path_14" data-name="Path 14" d="M325.52,48.591l41.7-24.08,32.106,55.609-41.7,24.08Zm0,0" transform="translate(-151.334 -11.395)" fill="#ff455a"/>
        <path id="Path_15" data-name="Path 15" d="M364.488,36.551l20.852-12.04,32.106,55.609L396.594,92.16Zm0,0" transform="translate(-169.45 -11.395)" fill="#bf0032"/>
        <path id="Path_16" data-name="Path 16" d="M214.431,312a39.809,39.809,0,0,0-16.946,3.75,8.03,8.03,0,0,0-4.546,8.445A8.026,8.026,0,0,1,185,333.4v46.015A40.133,40.133,0,1,0,214.431,312Zm0,0" transform="translate(-86.006 -145.048)" fill="#faa68f"/>
        <path id="Path_17" data-name="Path 17" d="M164.08,340.159a24.08,24.08,0,1,1,24.08-24.08A24.107,24.107,0,0,1,164.08,340.159Zm0,0" transform="translate(-65.086 -135.75)" fill="#656e73"/>
        <path id="Path_18" data-name="Path 18" d="M185,292v48.159A24.08,24.08,0,1,0,185,292Zm0,0" transform="translate(-86.006 -135.75)" fill="#525c5c"/>
      </g>
      <g id="Group_3" data-name="Group 3" transform="translate(857.997 -34.585)">
        <path id="Path_51" data-name="Path 51" d="M337.738,470.923H37.4V442.11a5.589,5.589,0,0,1,5.764-5.4H331.975a5.592,5.592,0,0,1,5.764,5.4Zm0,0" transform="translate(138.437 335.294)" fill="#616a6e"/>
        <path id="Path_53" data-name="Path 53" d="M364.736,507.521H6.263a5.591,5.591,0,0,1-5.764-5.4v-23.41a5.592,5.592,0,0,1,5.764-5.4H364.736a5.592,5.592,0,0,1,5.764,5.4v23.411a5.589,5.589,0,0,1-5.764,5.4Zm0,0" transform="translate(140.504 331.061)" fill="#faa68f"/>
      </g>
    </g>
  </g>
</svg>
